<svg width="40" height="39" viewBox="0 0 40 39" fill="none" xmlns="http://www.w3.org/2000/svg">
<g filter="url(#filter0_d_0_1)">
<rect x="4" width="32" height="31" rx="5" fill="#A7BDC8"/>
</g>
<g clip-path="url(#clip0_0_1)">
<path fill-rule="evenodd" clip-rule="evenodd" d="M19.32 7.02898C20.7007 6.91115 22.0884 7.15398 23.347 7.73369C24.6056 8.31341 25.6921 9.21011 26.5 10.336V8.74998C26.5 8.55106 26.579 8.3603 26.7197 8.21965C26.8603 8.07899 27.0511 7.99998 27.25 7.99998C27.4489 7.99998 27.6397 8.07899 27.7803 8.21965C27.921 8.3603 28 8.55106 28 8.74998V13H23.75C23.5511 13 23.3603 12.921 23.2197 12.7803C23.079 12.6397 23 12.4489 23 12.25C23 12.0511 23.079 11.8603 23.2197 11.7196C23.3603 11.579 23.5511 11.5 23.75 11.5H25.477C24.7931 10.4299 23.8107 9.58356 22.6512 9.06556C21.4917 8.54757 20.2058 8.38058 18.9525 8.58524C17.6991 8.7899 16.5332 9.35723 15.5986 10.2172C14.6641 11.0771 14.002 12.1919 13.694 13.424C13.6713 13.5208 13.6296 13.6121 13.5712 13.6926C13.5129 13.7731 13.4392 13.8412 13.3543 13.8929C13.2694 13.9447 13.1751 13.9791 13.0768 13.994C12.9785 14.009 12.8783 14.0043 12.7818 13.9802C12.6854 13.956 12.5947 13.913 12.5151 13.8535C12.4354 13.794 12.3684 13.7193 12.3179 13.6337C12.2674 13.548 12.2344 13.4532 12.2208 13.3547C12.2073 13.2562 12.2135 13.1561 12.239 13.06C12.6435 11.4424 13.5434 9.99166 14.8128 8.91052C16.0822 7.82939 17.6577 7.17191 19.319 7.02998L19.32 7.02898ZM15.92 21.881C16.992 22.5164 18.1976 22.8925 19.4407 22.9795C20.6838 23.0665 21.93 22.8618 23.08 22.3819C24.23 21.902 25.252 21.1601 26.0646 20.2153C26.8771 19.2704 27.4577 18.1489 27.76 16.94C27.805 16.7482 27.7728 16.5464 27.6702 16.3781C27.5676 16.2099 27.403 16.0888 27.2119 16.041C27.0207 15.9932 26.8185 16.0225 26.6488 16.1226C26.4791 16.2227 26.3556 16.3856 26.305 16.576C25.9969 17.8078 25.3347 18.9223 24.4002 19.782C23.4658 20.6417 22.3 21.2089 21.0469 21.4136C19.7937 21.6182 18.5081 21.4513 17.3487 20.9336C16.1893 20.4158 15.207 19.5698 14.523 18.5H16.25C16.4489 18.5 16.6397 18.421 16.7803 18.2803C16.921 18.1397 17 17.9489 17 17.75C17 17.5511 16.921 17.3603 16.7803 17.2196C16.6397 17.079 16.4489 17 16.25 17H12V21.25C12 21.4489 12.079 21.6397 12.2197 21.7803C12.3603 21.921 12.5511 22 12.75 22C12.9489 22 13.1397 21.921 13.2803 21.7803C13.421 21.6397 13.5 21.4489 13.5 21.25V19.664C14.1448 20.5623 14.9688 21.3172 15.92 21.881Z" fill="#3F5560"/>
</g>
<defs>
<filter id="filter0_d_0_1" x="0" y="0" width="40" height="39" filterUnits="userSpaceOnUse" color-interpolation-filters="sRGB">
<feFlood flood-opacity="0" result="BackgroundImageFix"/>
<feColorMatrix in="SourceAlpha" type="matrix" values="0 0 0 0 0 0 0 0 0 0 0 0 0 0 0 0 0 0 127 0" result="hardAlpha"/>
<feOffset dy="4"/>
<feGaussianBlur stdDeviation="2"/>
<feComposite in2="hardAlpha" operator="out"/>
<feColorMatrix type="matrix" values="0 0 0 0 0 0 0 0 0 0 0 0 0 0 0 0 0 0 0.25 0"/>
<feBlend mode="normal" in2="BackgroundImageFix" result="effect1_dropShadow_0_1"/>
<feBlend mode="normal" in="SourceGraphic" in2="effect1_dropShadow_0_1" result="shape"/>
</filter>
<clipPath id="clip0_0_1">
<rect width="16" height="16" fill="white" transform="translate(12 7)"/>
</clipPath>
</defs>
</svg>
